<mxfile host="app.diagrams.net" modified="2023-10-24T02:23:26.874Z" agent="Mozilla/5.0 (Macintosh; Intel Mac OS X 10_15_7) AppleWebKit/537.36 (KHTML, like Gecko) Chrome/118.0.0.0 Safari/537.36" etag="7rQGN3aoOk3CYj_0b0VW" version="22.0.6" type="github">
  <diagram name="Page-1" id="MeL6B_QRo7sx-52IFI-f">
    <mxGraphModel dx="1272" dy="696" grid="1" gridSize="10" guides="1" tooltips="1" connect="1" arrows="1" fold="1" page="1" pageScale="1" pageWidth="850" pageHeight="1100" math="0" shadow="0">
      <root>
        <mxCell id="0" />
        <mxCell id="1" parent="0" />
        <mxCell id="8nm7IKoo1UoO5x78wYxg-6" value="" style="edgeStyle=orthogonalEdgeStyle;rounded=0;orthogonalLoop=1;jettySize=auto;html=1;" edge="1" parent="1" source="8nm7IKoo1UoO5x78wYxg-1" target="8nm7IKoo1UoO5x78wYxg-5">
          <mxGeometry relative="1" as="geometry" />
        </mxCell>
        <mxCell id="8nm7IKoo1UoO5x78wYxg-1" value="Start" style="ellipse;whiteSpace=wrap;html=1;" vertex="1" parent="1">
          <mxGeometry x="60" y="50" width="120" height="80" as="geometry" />
        </mxCell>
        <mxCell id="8nm7IKoo1UoO5x78wYxg-2" value="How to sharpen a pencil" style="shape=process;whiteSpace=wrap;html=1;backgroundOutline=1;" vertex="1" parent="1">
          <mxGeometry x="320" y="10" width="180" height="30" as="geometry" />
        </mxCell>
        <mxCell id="8nm7IKoo1UoO5x78wYxg-8" value="" style="edgeStyle=orthogonalEdgeStyle;rounded=0;orthogonalLoop=1;jettySize=auto;html=1;" edge="1" parent="1" source="8nm7IKoo1UoO5x78wYxg-5" target="8nm7IKoo1UoO5x78wYxg-7">
          <mxGeometry relative="1" as="geometry" />
        </mxCell>
        <mxCell id="8nm7IKoo1UoO5x78wYxg-5" value="Locate a pencil sharpener" style="whiteSpace=wrap;html=1;" vertex="1" parent="1">
          <mxGeometry x="60" y="190" width="120" height="60" as="geometry" />
        </mxCell>
        <mxCell id="8nm7IKoo1UoO5x78wYxg-10" value="" style="edgeStyle=orthogonalEdgeStyle;rounded=0;orthogonalLoop=1;jettySize=auto;html=1;" edge="1" parent="1" source="8nm7IKoo1UoO5x78wYxg-7" target="8nm7IKoo1UoO5x78wYxg-9">
          <mxGeometry relative="1" as="geometry" />
        </mxCell>
        <mxCell id="8nm7IKoo1UoO5x78wYxg-7" value="Put pencil in pencil sharpener" style="whiteSpace=wrap;html=1;" vertex="1" parent="1">
          <mxGeometry x="60" y="320" width="120" height="60" as="geometry" />
        </mxCell>
        <mxCell id="8nm7IKoo1UoO5x78wYxg-18" value="" style="edgeStyle=orthogonalEdgeStyle;rounded=0;orthogonalLoop=1;jettySize=auto;html=1;" edge="1" parent="1" source="8nm7IKoo1UoO5x78wYxg-9" target="8nm7IKoo1UoO5x78wYxg-17">
          <mxGeometry relative="1" as="geometry" />
        </mxCell>
        <mxCell id="8nm7IKoo1UoO5x78wYxg-9" value="Twist pencil" style="whiteSpace=wrap;html=1;" vertex="1" parent="1">
          <mxGeometry x="60" y="450" width="120" height="60" as="geometry" />
        </mxCell>
        <mxCell id="8nm7IKoo1UoO5x78wYxg-14" value="" style="edgeStyle=orthogonalEdgeStyle;rounded=0;orthogonalLoop=1;jettySize=auto;html=1;" edge="1" parent="1" source="8nm7IKoo1UoO5x78wYxg-11" target="8nm7IKoo1UoO5x78wYxg-13">
          <mxGeometry relative="1" as="geometry" />
        </mxCell>
        <mxCell id="8nm7IKoo1UoO5x78wYxg-16" value="" style="edgeStyle=orthogonalEdgeStyle;rounded=0;orthogonalLoop=1;jettySize=auto;html=1;" edge="1" parent="1" source="8nm7IKoo1UoO5x78wYxg-11" target="8nm7IKoo1UoO5x78wYxg-15">
          <mxGeometry relative="1" as="geometry" />
        </mxCell>
        <mxCell id="8nm7IKoo1UoO5x78wYxg-11" value="Check if sharpened" style="whiteSpace=wrap;html=1;" vertex="1" parent="1">
          <mxGeometry x="320" y="590" width="120" height="60" as="geometry" />
        </mxCell>
        <mxCell id="8nm7IKoo1UoO5x78wYxg-23" value="" style="edgeStyle=orthogonalEdgeStyle;rounded=0;orthogonalLoop=1;jettySize=auto;html=1;" edge="1" parent="1" source="8nm7IKoo1UoO5x78wYxg-13" target="8nm7IKoo1UoO5x78wYxg-22">
          <mxGeometry relative="1" as="geometry" />
        </mxCell>
        <mxCell id="8nm7IKoo1UoO5x78wYxg-13" value="Yes" style="whiteSpace=wrap;html=1;" vertex="1" parent="1">
          <mxGeometry x="320" y="730" width="120" height="60" as="geometry" />
        </mxCell>
        <mxCell id="8nm7IKoo1UoO5x78wYxg-20" style="edgeStyle=orthogonalEdgeStyle;rounded=0;orthogonalLoop=1;jettySize=auto;html=1;entryX=1;entryY=0.5;entryDx=0;entryDy=0;" edge="1" parent="1" source="8nm7IKoo1UoO5x78wYxg-15" target="8nm7IKoo1UoO5x78wYxg-7">
          <mxGeometry relative="1" as="geometry">
            <Array as="points">
              <mxPoint x="670" y="760" />
              <mxPoint x="670" y="350" />
            </Array>
          </mxGeometry>
        </mxCell>
        <mxCell id="8nm7IKoo1UoO5x78wYxg-15" value="No" style="whiteSpace=wrap;html=1;" vertex="1" parent="1">
          <mxGeometry x="520" y="730" width="120" height="60" as="geometry" />
        </mxCell>
        <mxCell id="8nm7IKoo1UoO5x78wYxg-19" style="edgeStyle=orthogonalEdgeStyle;rounded=0;orthogonalLoop=1;jettySize=auto;html=1;entryX=0;entryY=0.5;entryDx=0;entryDy=0;" edge="1" parent="1" source="8nm7IKoo1UoO5x78wYxg-17" target="8nm7IKoo1UoO5x78wYxg-11">
          <mxGeometry relative="1" as="geometry" />
        </mxCell>
        <mxCell id="8nm7IKoo1UoO5x78wYxg-17" value="Take pencil out" style="whiteSpace=wrap;html=1;" vertex="1" parent="1">
          <mxGeometry x="60" y="590" width="120" height="60" as="geometry" />
        </mxCell>
        <mxCell id="8nm7IKoo1UoO5x78wYxg-22" value="End" style="ellipse;whiteSpace=wrap;html=1;" vertex="1" parent="1">
          <mxGeometry x="315" y="860" width="130" height="80" as="geometry" />
        </mxCell>
      </root>
    </mxGraphModel>
  </diagram>
</mxfile>
